<svg xmlns="http://www.w3.org/2000/svg" viewBox="0 0 42.93 28.67"><defs><style>.cls-1{fill:#c1282d;}.cls-2{fill:#fff;}</style></defs><title>logo_apj</title><g id="Layer_2" data-name="Layer 2"><g id="Layer_1-2" data-name="Layer 1"><path class="cls-1" d="M34.56,2.24C33.05.75,30.8,0,27.64,0a34.18,34.18,0,0,0-6.91.58V28.21H25.8v-10a9.65,9.65,0,0,0,1.74.13,9.27,9.27,0,0,0,7.36-3A10.19,10.19,0,0,0,37,8.72,9.05,9.05,0,0,0,34.56,2.24Zm-7,11.22a6.08,6.08,0,0,1-1.71-.17V5a6.9,6.9,0,0,1,2.11-.25c2.55,0,4,1.53,4,4.11C31.91,11.76,30.23,13.46,27.51,13.46Z"/><path class="cls-1" d="M36.7.07h6.23V17.74c0,8-3.77,10.75-9.84,10.75a15.88,15.88,0,0,1-4.55-.67l.7-5.1a10.12,10.12,0,0,0,3.19.5c2.63,0,4.27-1.2,4.27-5.56Z"/><polygon class="cls-1" points="25.8 25.91 25.8 28.17 0 28.17 13.05 0.67 20.73 15.87 25.8 25.91"/><path class="cls-2" d="M19,17.11l-.44-.34a1.66,1.66,0,0,0-.47,1.79,7,7,0,0,1,.25,1,.93.93,0,0,1-.25.7c-.12.1-.47,0-.68-.12s-.28-.25-.42-.37a2,2,0,0,0-2.44-.35,9.12,9.12,0,0,1-1.52.53c-1,.25-1.21.74-.65,1.55a8.06,8.06,0,0,0,1.19,1.13c-1-.08-1.39-.87-1.81-1.59a4.32,4.32,0,0,0-4,3.52c-.1.42-.24.84-.38,1.29l.53,0v2.87c.45,0,.92,0,1.39,0,.14,0,.29-.19.39-.32a10.42,10.42,0,0,1,1-1.29,1.26,1.26,0,0,1,1.51-.29,1.35,1.35,0,0,1,.66,1.33c0,.17,0,.34,0,.56h1.64c0-.38,0-.77,0-1.16a4.94,4.94,0,0,1,3-4.81,6,6,0,0,0,.55-.31c1.72-1.05,2-2.12,1.1-3.91C18.69,17.77,18.69,17.77,19,17.11Z"/></g></g></svg>